<svg width="61" height="33" viewBox="0 0 61 33" fill="none" xmlns="http://www.w3.org/2000/svg">
<path fill-rule="evenodd" clip-rule="evenodd" d="M16.7502 6.33343C22.5361 6.33343 27.2262 11.0238 27.2262 16.8096C27.2262 22.5955 22.5361 27.2858 16.7502 27.2858C10.9643 27.2858 6.27382 22.5955 6.27382 16.8096C6.27382 11.0238 10.9643 6.33343 16.7502 6.33343ZM32.9405 16.8096C32.9405 7.86785 25.6918 0.619141 16.7502 0.619141C7.80832 0.619141 0.55957 7.86785 0.55957 16.8096C0.55957 25.7514 7.80832 33 16.7502 33C25.6918 33 32.9405 25.7514 32.9405 16.8096Z" fill="#B3C0BC"/>
<path fill-rule="evenodd" clip-rule="evenodd" d="M30.0834 19.6667H47.2262V13.9525H30.0834V19.6667Z" fill="#B3C0BC"/>
<path d="M45.3215 16.8096C45.3215 19.9655 47.8798 22.5239 51.0358 22.5239C54.1917 22.5239 56.7501 19.9655 56.7501 16.8096C56.7501 13.6537 54.1917 11.0953 51.0358 11.0953C47.8798 11.0953 45.3215 13.6537 45.3215 16.8096Z" fill="#B3C0BC"/>
<path fill-rule="evenodd" clip-rule="evenodd" d="M51.0358 14.9048C52.0877 14.9048 52.9405 15.7576 52.9405 16.8096C52.9405 17.8616 52.0877 18.7143 51.0358 18.7143C49.9838 18.7143 49.131 17.8616 49.131 16.8096C49.131 15.7576 49.9838 14.9048 51.0358 14.9048ZM60.5596 16.8096C60.5596 11.5497 56.2956 7.28577 51.0358 7.28577C45.7759 7.28577 41.5119 11.5497 41.5119 16.8096C41.5119 22.0694 45.7759 26.3334 51.0358 26.3334C56.2956 26.3334 60.5596 22.0694 60.5596 16.8096Z" fill="#B3C0BC"/>
</svg>
