<svg width="270" height="148" viewBox="0 0 270 148" fill="none" xmlns="http://www.w3.org/2000/svg">
<path fill-rule="evenodd" clip-rule="evenodd" d="M121 36.3333C121 23.999 126.006 16 138.35 16H252.65C264.994 16 270 23.999 270 36.3333V103.333C270 115.668 264.994 125.667 252.65 125.667H202.95V140.111H214.85C216.507 140.111 217.85 141.454 217.85 143.111V148H173.15V143.111C173.15 141.454 174.493 140.111 176.15 140.111H188.05V125.667H138.35C126.006 125.667 121 115.668 121 103.333V36.3333ZM130.9 31.3333C130.9 27.2219 134.236 23.8889 138.35 23.8889H252.65C256.765 23.8889 260.1 27.2219 260.1 31.3333V109.333C260.1 113.445 256.765 116.778 252.65 116.778H138.35C134.236 116.778 130.9 113.445 130.9 109.333V31.3333Z" fill="#B2B8B6"/>
<path d="M138.35 23.8889C134.236 23.8889 130.9 27.2219 130.9 31.3333V109.333C130.9 113.445 134.236 116.778 138.35 116.778H252.65C256.765 116.778 260.1 113.445 260.1 109.333V31.3333C260.1 27.2219 256.765 23.8889 252.65 23.8889H138.35Z" fill="white"/>
<path fill-rule="evenodd" clip-rule="evenodd" d="M14.8333 0H74.1667C78.1007 0 81.8736 1.55928 84.6554 4.33482C87.4372 7.11036 89 10.8748 89 14.8V148H0V14.8C0 10.8748 1.56279 7.11036 4.34458 4.33482C7.12637 1.55928 10.8993 0 14.8333 0ZM14.8333 29.6V14.8H74.1667V29.6H14.8333ZM14.8333 44.4H74.1667V55.2H14.8333V44.4ZM60.3333 119.4H73.1667V132.2H60.3333V119.4Z" fill="#B2B8B6"/>
<path d="M14.8333 14.8V29.6H74.1667V14.8H14.8333Z" fill="white"/>
<path d="M74.1667 44.4H14.8333V55.2H74.1667V44.4Z" fill="white"/>
<path d="M73.1667 119.4H60.3333V132.2H73.1667V119.4Z" fill="white"/>
</svg>
