<svg width="247" height="48" viewBox="0 0 247 48" fill="none" xmlns="http://www.w3.org/2000/svg">
<g clip-path="url(#clip0_64_6)">
<path d="M27.208 9.816C26.44 10.968 25.2453 12.696 23.624 15C20.2107 13.5067 17.16 12.76 14.472 12.76C10.9307 12.76 9.16 14.0827 9.16 16.728C9.16 17.9227 9.56533 18.8613 10.376 19.544C11.1867 20.2267 12.872 21.0587 15.432 22.04C20.04 23.832 23.3467 25.7733 25.352 27.864C27.4 29.9547 28.424 32.472 28.424 35.416C28.424 39.5547 26.8667 42.7547 23.752 45.016C21.192 46.8507 18.0133 47.768 14.216 47.768C9.736 47.768 4.95733 46.1467 -0.12 42.904L3.592 37.72C6.06667 39.384 9.24533 40.216 13.128 40.216C17.5227 40.216 19.72 38.4453 19.72 34.904C19.72 32.6 17.352 30.6373 12.616 29.016C4.97867 26.456 1.16 22.36 1.16 16.728C1.16 13.3147 2.44 10.6053 5 8.6C7.38933 6.68 10.568 5.72 14.536 5.72C19.0587 5.72 23.2827 7.08533 27.208 9.816ZM43.047 13.208H31.335V6.488H64.103V13.208H51.495V47H43.047V13.208ZM78.4385 6.488V47H70.1825V6.488H78.4385ZM96.9385 19.864V47H88.6825V6.488H95.6585C102.485 15.3627 109.269 24.6853 116.011 34.456V6.488H124.395V47H117.227C113.216 42.264 106.453 33.2187 96.9385 19.864Z" fill="black"/>
<rect x="137" y="6" width="110" height="41" fill="url(#paint0_linear_64_6)"/>
</g>
<defs>
<linearGradient id="paint0_linear_64_6" x1="137" y1="26.5" x2="247" y2="26.5" gradientUnits="userSpaceOnUse">
<stop stop-color="#FF0000"/>
<stop offset="0.515" stop-color="#EADF6B"/>
<stop offset="1" stop-color="#00B3FF"/>
</linearGradient>
<clipPath id="clip0_64_6">
<rect width="247" height="48" fill="white"/>
</clipPath>
</defs>
</svg>
