<svg width="44" height="44" viewBox="0 0 44 44" fill="none" xmlns="http://www.w3.org/2000/svg">
<path fill-rule="evenodd" clip-rule="evenodd" d="M33.4037 28.7615H36.3807C40.611 28.7615 44 32.1504 44 36.3807C44 40.611 40.611 44 36.3807 44C32.1504 44 28.7615 40.611 28.7615 36.3807V33.4037H15.2385V36.3807C15.2385 40.611 11.8496 44 7.61927 44C3.38898 44 0 40.611 0 36.3807C0 32.1504 3.38898 28.7615 7.61927 28.7615H10.5963V15.2385H7.61927C3.38898 15.2385 0 11.8496 0 7.61927C0 3.38898 3.38898 0 7.61927 0C11.8496 0 15.2385 3.38898 15.2385 7.61927V10.5963H28.7615V7.61927C28.7615 3.38898 32.1504 0 36.3807 0C40.611 0 44 3.38898 44 7.61927C44 11.8496 40.611 15.2385 36.3807 15.2385H33.4037V28.7615ZM36.3807 4.6422C34.7073 4.6422 33.4037 5.94588 33.4037 7.61927V10.5963H36.3807C38.0541 10.5963 39.3578 9.29265 39.3578 7.61927C39.3578 5.94588 38.0541 4.6422 36.3807 4.6422ZM7.61927 39.3578C9.29265 39.3578 10.5963 38.0541 10.5963 36.3807V33.4037H7.61927C5.94588 33.4037 4.6422 34.7073 4.6422 36.3807C4.6422 38.0541 5.94588 39.3578 7.61927 39.3578ZM7.61927 10.5963H10.5963V7.61927C10.5963 5.94588 9.29265 4.6422 7.61927 4.6422C5.94588 4.6422 4.6422 5.94588 4.6422 7.61927C4.6422 9.29265 5.94588 10.5963 7.61927 10.5963ZM15.2385 28.7615H28.7615V15.2385H15.2385V28.7615ZM33.4037 36.3807C33.4037 38.0541 34.7073 39.3578 36.3807 39.3578C38.0541 39.3578 39.3578 38.0541 39.3578 36.3807C39.3578 34.7073 38.0541 33.4037 36.3807 33.4037H33.4037V36.3807ZM36.3807 29.5688C40.1651 29.5688 43.1927 32.5963 43.1927 36.3807C43.1927 40.1651 40.1651 43.1927 36.3807 43.1927C32.5963 43.1927 29.5688 40.1651 29.5688 36.3807V32.5963H14.4312V36.3807C14.4312 40.1651 11.4037 43.1927 7.61927 43.1927C3.83486 43.1927 0.807339 40.1651 0.807339 36.3807C0.807339 32.5963 3.83486 29.5688 7.61927 29.5688H11.4037V14.4312H7.61927C3.83486 14.4312 0.807339 11.4037 0.807339 7.61927C0.807339 3.83486 3.83486 0.807339 7.61927 0.807339C11.4037 0.807339 14.4312 3.83486 14.4312 7.61927V11.4037H29.5688V7.61927C29.5688 3.83486 32.5963 0.807339 36.3807 0.807339C40.1651 0.807339 43.1927 3.83486 43.1927 7.61927C43.1927 11.4037 40.1651 14.4312 36.3807 14.4312H32.5963V29.5688H36.3807ZM36.3807 3.83486C34.2615 3.83486 32.5963 5.5 32.5963 7.61927V11.4037H36.3807C38.5 11.4037 40.1651 9.73853 40.1651 7.61927C40.1651 5.5 38.5 3.83486 36.3807 3.83486ZM7.61927 40.1651C9.73853 40.1651 11.4037 38.5 11.4037 36.3807V32.5963H7.61927C5.5 32.5963 3.83486 34.2615 3.83486 36.3807C3.83486 38.5 5.5 40.1651 7.61927 40.1651ZM11.4037 11.4037V7.61927C11.4037 5.5 9.73853 3.83486 7.61927 3.83486C5.5 3.83486 3.83486 5.5 3.83486 7.61927C3.83486 9.73853 5.5 11.4037 7.61927 11.4037H11.4037ZM29.5688 29.5688V14.4312H14.4312V29.5688H29.5688ZM32.5963 36.3807C32.5963 38.5 34.2615 40.1651 36.3807 40.1651C38.5 40.1651 40.1651 38.5 40.1651 36.3807C40.1651 34.2615 38.5 32.5963 36.3807 32.5963H32.5963V36.3807Z" fill="#2CA9BC"/>
<path fill-rule="evenodd" clip-rule="evenodd" d="M43.1927 36.3807C43.1927 32.5963 40.1651 29.5688 36.3807 29.5688H32.5963V14.4312H36.3807C40.1651 14.4312 43.1927 11.4037 43.1927 7.61927C43.1927 3.83486 40.1651 0.807339 36.3807 0.807339C32.5963 0.807339 29.5688 3.83486 29.5688 7.61927V11.4037H14.4312V7.61927C14.4312 3.83486 11.4037 0.807339 7.61927 0.807339C3.83486 0.807339 0.807339 3.83486 0.807339 7.61927C0.807339 11.4037 3.83486 14.4312 7.61927 14.4312H11.4037V29.5688H7.61927C3.83486 29.5688 0.807339 32.5963 0.807339 36.3807C0.807339 40.1651 3.83486 43.1927 7.61927 43.1927C11.4037 43.1927 14.4312 40.1651 14.4312 36.3807V32.5963H29.5688V36.3807C29.5688 40.1651 32.5963 43.1927 36.3807 43.1927C40.1651 43.1927 43.1927 40.1651 43.1927 36.3807ZM36.3807 3.83486C34.2615 3.83486 32.5963 5.5 32.5963 7.61927V11.4037H36.3807C38.5 11.4037 40.1651 9.73853 40.1651 7.61927C40.1651 5.5 38.5 3.83486 36.3807 3.83486ZM7.61927 40.1651C9.73853 40.1651 11.4037 38.5 11.4037 36.3807V32.5963H7.61927C5.5 32.5963 3.83486 34.2615 3.83486 36.3807C3.83486 38.5 5.5 40.1651 7.61927 40.1651ZM11.4037 7.61927C11.4037 5.5 9.73853 3.83486 7.61927 3.83486C5.5 3.83486 3.83486 5.5 3.83486 7.61927C3.83486 9.73853 5.5 11.4037 7.61927 11.4037H11.4037V7.61927ZM32.5963 36.3807C32.5963 38.5 34.2615 40.1651 36.3807 40.1651C38.5 40.1651 40.1651 38.5 40.1651 36.3807C40.1651 34.2615 38.5 32.5963 36.3807 32.5963H32.5963V36.3807ZM14.4312 29.5688H29.5688V14.4312H14.4312V29.5688Z" fill="#2CA9BC"/>
</svg>
