<svg width="50" height="41" viewBox="0 0 50 41" fill="none" xmlns="http://www.w3.org/2000/svg">
<path d="M26.1138 29.1559V31.4501C26.1138 31.6319 26.0778 31.8117 26.0082 31.9798C25.9387 32.1478 25.8366 32.3007 25.7081 32.4293C25.5795 32.558 25.4268 32.6595 25.259 32.7291C25.091 32.7986 24.9108 32.8345 24.7289 32.8345C24.5472 32.8345 24.367 32.7986 24.199 32.7291C24.031 32.6595 23.8785 32.558 23.7499 32.4293C23.6214 32.3007 23.5193 32.1478 23.4498 31.9798C23.3802 31.8117 23.3442 31.6319 23.3442 31.4501V29.0943C22.4272 28.9436 21.5493 28.6121 20.7617 28.119C19.974 27.6257 19.2923 26.9805 18.7563 26.2212C18.5611 25.9734 18.4522 25.6688 18.4463 25.3534C18.4489 25.1761 18.4871 25.001 18.5586 24.8388C18.6302 24.6766 18.7336 24.5305 18.8628 24.4089C18.992 24.2874 19.1442 24.1934 19.3105 24.132C19.4769 24.0704 19.6539 24.0429 19.831 24.0512C20.0062 24.0516 20.1794 24.089 20.3395 24.1601C20.4996 24.2314 20.6431 24.3352 20.7609 24.4649C21.4272 25.3278 22.3223 25.9864 23.3442 26.3661V21.0961C20.5956 20.0214 19.211 18.4092 19.211 16.3219C19.2524 15.2044 19.6916 14.1385 20.4494 13.3162C21.2073 12.494 22.2338 11.9696 23.3442 11.8374V9.56382C23.3442 9.382 23.3802 9.20203 23.4498 9.03405C23.5193 8.86605 23.6214 8.71358 23.7499 8.58499C23.8785 8.4564 24.031 8.35437 24.199 8.28478C24.367 8.2152 24.5472 8.17932 24.7289 8.17932C24.9108 8.17932 25.091 8.2152 25.259 8.28478C25.4268 8.35437 25.5795 8.4564 25.7081 8.58499C25.8366 8.71358 25.9387 8.86605 26.0082 9.03405C26.0778 9.20203 26.1138 9.382 26.1138 9.56382V11.8167C26.8828 11.9372 27.6195 12.2115 28.2801 12.6235C28.9406 13.0354 29.5112 13.5762 29.9576 14.2138C30.1545 14.4463 30.2707 14.7367 30.2882 15.0407C30.2938 15.2189 30.2638 15.396 30.2002 15.5626C30.1363 15.7289 30.0402 15.8813 29.9171 16.01C29.7939 16.139 29.6463 16.2421 29.4831 16.3134C29.3198 16.3847 29.1439 16.4227 28.9656 16.4254C28.7792 16.4202 28.5958 16.3752 28.4282 16.2931C28.2606 16.2111 28.1127 16.0941 27.9942 15.9501C27.5015 15.3344 26.852 14.8634 26.1138 14.5863V19.2363L26.6304 19.4425C29.2551 20.4759 30.8878 21.9641 30.8878 24.3201C30.857 25.5824 30.3459 26.7854 29.4589 27.684C28.5719 28.5826 27.3755 29.1087 26.1138 29.1559ZM23.3442 18.0374V14.6685C23.0107 14.7894 22.7236 15.0122 22.5233 15.3053C22.3233 15.5981 22.22 15.9466 22.2284 16.3012C22.2222 16.6684 22.3247 17.0297 22.5233 17.3385C22.722 17.6474 23.0076 17.8905 23.3442 18.0374ZM27.8702 24.3821C27.8702 23.3901 27.1884 22.7907 26.1138 22.3154V26.4487C26.6065 26.3741 27.0558 26.1237 27.3786 25.744C27.7014 25.3642 27.876 24.8806 27.8702 24.3821Z" fill="#185E9E"/>
<path d="M37.0667 2H12.2667C10.0742 2 7.97156 2.87108 6.42125 4.42137C4.87093 5.97168 4 8.0742 4 10.2667V30.9334C4 33.1257 4.87093 35.2284 6.42125 36.7786C7.97156 38.329 10.0742 39.2001 12.2667 39.2001H37.0667C39.2592 39.2001 41.3618 38.329 42.912 36.7786C44.4624 35.2284 45.3333 33.1257 45.3333 30.9334V10.2667C45.3333 8.0742 44.4624 5.97168 42.912 4.42137C41.3618 2.87108 39.2592 2 37.0667 2Z" stroke="#185E9E" stroke-width="3.6" stroke-linecap="round" stroke-linejoin="round"/>
</svg>
