<svg width="50" height="41" viewBox="0 0 50 41" fill="none" xmlns="http://www.w3.org/2000/svg">
<path fill-rule="evenodd" clip-rule="evenodd" d="M46.75 7.875C46.75 8.91052 45.9105 9.75 44.875 9.75H4.875C3.83948 9.75 3 8.91052 3 7.875C3 6.83948 3.83948 6 4.875 6H44.875C45.9105 6 46.75 6.83948 46.75 7.875Z" fill="#185E9E"/>
<path fill-rule="evenodd" clip-rule="evenodd" d="M46.75 20.375C46.75 21.4105 45.9105 22.25 44.875 22.25H4.875C3.83948 22.25 3 21.4105 3 20.375C3 19.3395 3.83948 18.5 4.875 18.5H44.875C45.9105 18.5 46.75 19.3395 46.75 20.375Z" fill="#185E9E"/>
<path fill-rule="evenodd" clip-rule="evenodd" d="M46.75 32.875C46.75 33.9105 45.9105 34.75 44.875 34.75H4.875C3.83948 34.75 3 33.9105 3 32.875C3 31.8395 3.83948 31 4.875 31H44.875C45.9105 31 46.75 31.8395 46.75 32.875Z" fill="#185E9E"/>
</svg>
