<svg width="81" height="24" viewBox="0 0 81 24" fill="none" xmlns="http://www.w3.org/2000/svg">
<path d="M37.5 3C37.5 1.62386 36.3761 0.5 35 0.5H3C1.62386 0.5 0.5 1.62386 0.5 3V21C0.5 22.3761 1.62386 23.5 3 23.5H35C36.3761 23.5 37.5 22.3761 37.5 21V3Z" fill="white" stroke="#E5EEF3"/>
<path d="M28.3 10.1H28C27.6 11.1 27.3 11.6 27 13.1H28.9C28.6 11.6 28.6 10.9 28.3 10.1ZM31.2 16H29.5C29.4 16 29.4 16 29.3 15.9L29.1 15L29 14.8H26.6C26.5 14.8 26.4 14.8 26.4 15L26.1 15.9C26.1 16 26 16 26 16H23.9L24.1 15.5L27 8.7C27 8.2 27.3 8 27.8 8H29.3C29.4 8 29.5 8 29.5 8.2L30.9 14.7C31 15.1 31.1 15.4 31.1 15.8C31.2 15.9 31.2 15.9 31.2 16ZM17.8 15.7L18.2 13.9C18.3 13.9 18.4 14 18.4 14C19.1 14.3 19.8 14.5 20.5 14.4C20.7 14.4 21 14.3 21.2 14.2C21.7 14 21.7 13.5 21.3 13.1C21.1 12.9 20.8 12.8 20.5 12.6C20.1 12.4 19.7 12.2 19.4 11.9C18.2 10.9 18.6 9.5 19.3 8.8C19.9 8.4 20.2 8 21 8C22.2 8 23.5 8 24.1 8.2H24.2C24.1 8.8 24 9.3 23.8 9.9C23.3 9.7 22.8 9.5 22.3 9.5C22 9.5 21.7 9.5 21.4 9.6C21.2 9.6 21.1 9.7 21 9.8C20.8 10 20.8 10.3 21 10.5L21.5 10.9C21.9 11.1 22.3 11.3 22.6 11.5C23.1 11.8 23.6 12.3 23.7 12.9C23.9 13.8 23.6 14.6 22.8 15.2C22.3 15.6 22.1 15.8 21.4 15.8C20 15.8 18.9 15.9 18 15.6C17.9 15.8 17.9 15.8 17.8 15.7ZM14.3 16C14.4 15.3 14.4 15.3 14.5 15C15 12.8 15.5 10.5 15.9 8.3C16 8.1 16 8 16.2 8H18C17.8 9.2 17.6 10.1 17.3 11.2C17 12.7 16.7 14.2 16.3 15.7C16.3 15.9 16.2 15.9 16 15.9M5 8.2C5 8.1 5.2 8 5.3 8H8.7C9.2 8 9.6 8.3 9.7 8.8L10.6 13.2C10.6 13.3 10.6 13.3 10.7 13.4C10.7 13.3 10.8 13.3 10.8 13.3L12.9 8.2C12.8 8.1 12.9 8 13 8H15.1C15.1 8.1 15.1 8.1 15 8.2L11.9 15.5C11.8 15.7 11.8 15.8 11.7 15.9C11.6 16 11.4 15.9 11.2 15.9H9.7C9.6 15.9 9.5 15.9 9.5 15.7L7.9 9.5C7.7 9.3 7.4 9 7 8.9C6.4 8.6 5.3 8.4 5.1 8.4L5 8.2Z" fill="#0024E9"/>
<path d="M80.5 3C80.5 1.62386 79.3761 0.5 78 0.5H46C44.6239 0.5 43.5 1.62386 43.5 3V21C43.5 22.3761 44.6239 23.5 46 23.5H78C79.3761 23.5 80.5 22.3761 80.5 21V3Z" fill="#404040" stroke="black"/>
<path d="M58 19C61.866 19 65 15.866 65 12C65 8.13401 61.866 5 58 5C54.134 5 51 8.13401 51 12C51 15.866 54.134 19 58 19Z" fill="#EB001B"/>
<path d="M66 19C69.866 19 73 15.866 73 12C73 8.13401 69.866 5 66 5C62.134 5 59 8.13401 59 12C59 15.866 62.134 19 66 19Z" fill="#F79E1B"/>
<path d="M65 12C65 9.60005 63.8 7.50005 62 6.30005C60.2 7.60005 59 9.70005 59 12C59 14.3 60.2 16.5 62 17.7C63.8 16.5 65 14.4 65 12Z" fill="#FF5F00"/>
</svg>
